<?xml version="1.0" standalone="no"?>
<!DOCTYPE svg PUBLIC "-//W3C//DTD SVG 1.1//EN" "http://www.w3.org/Graphics/SVG/1.1/DTD/svg11.dtd" >
<svg xmlns="http://www.w3.org/2000/svg">
<metadata>
This is a custom SVG webfont generated by Font Squirrel.
Copyright   : Copyright c 2008 by Hannes von Dhren All rights reserved
Designer    : Hannes von Dhren
Foundry     : Hannes von Dhren
</metadata>
<defs>
<font id="webfontwWU2NUoE" horiz-adv-x="1024" >
<font-face units-per-em="2048" ascent="1516" descent="-532" />
<missing-glyph horiz-adv-x="716" />
<glyph unicode=" "  horiz-adv-x="716" />
<glyph unicode="&#x09;" horiz-adv-x="716" />
<glyph unicode="&#xa0;" horiz-adv-x="716" />
<glyph unicode="!" horiz-adv-x="630" d="M55 1432q25 16 218.5 16t291.5 -21q0 -215 -38 -414.5t-75.5 -295.5t-52.5 -99q-25 -4 -94 -3t-76 8q-10 12 -51 146t-82 332t-41 331zM117 193q-2 96 57 154.5t143 58.5t148.5 -61.5t64.5 -141.5q0 -92 -47 -155.5t-143 -63.5q-104 0 -161.5 55.5t-61.5 153.5z" />
<glyph unicode="&#x22;" horiz-adv-x="909" d="M100 1485q23 8 106 8t154.5 -3t71.5 -5q0 -4 -52 -241.5t-54 -237.5q-180 0 -189 8q-4 4 -13 122l-18 232zM509 1268.5q1 238.5 5 240.5q-4 2 80 0t168 -6t82 -6l-117 -473q-211 -8 -215 0q-4 6 -3 244.5z" />
<glyph unicode="#" horiz-adv-x="1253" d="M76 348q-6 12 1 92t15 82q4 2 50 9l89 14l43 8q0 4 28 115.5t30 111.5l-176 -4q-16 2 -19 4q-8 8 4.5 95.5t18.5 87.5q14 0 111.5 7t101.5 11l92 451q4 4 63.5 9t108.5 5t57 -4q0 -6 -55 -230.5t-55 -226.5q0 -4 123.5 0t134.5 6q6 2 48 216t42 227q0 8 209 8 q4 0 -23 -113l-53 -224q-27 -112 -21 -110q10 4 90 3t80 -7q0 -16 -8 -114.5t-12 -98.5t-100 4l-97 2l-53 -221q186 -6 186 -18q0 -186 -8 -187q-193 0 -200 -12l-95 -360q-195 2 -200 6q-2 0 69 354q0 2 -25.5 3t-63.5 0t-75.5 -3t-64.5 -2l-29 -2l-20 -86l-37 -174 l-21 -86l-190 12l72 348l-133 -14q-31 0 -33 6zM487 565q6 -8 123 -6t121 10l41 217h-240l-45 -200q-2 -19 0 -21z" />
<glyph unicode="$" horiz-adv-x="1161" d="M59 504q213 47 322 31q27 -98 80 -155.5t106 -57.5q47 0 80 24.5t33 69.5q0 33 -13.5 60.5t-43 50t-53 37t-71.5 37.5l-73 36q-86 45 -136 79t-108.5 92t-86 138t-27.5 184q0 150 110.5 254.5t296.5 112.5q-6 172 -4 182q2 8 92 18.5t92 2.5q0 -4 1 -47t3.5 -99.5 t2.5 -76.5q82 -25 116 -60l15 99q172 8 272 -35q4 -2 -2 -102.5t-14.5 -219.5t-8.5 -143q0 -14 -79.5 -20.5t-159.5 -5.5t-80 5q-6 82 -48 123t-95 41q-39 0 -76 -23.5t-37 -76.5q0 -33 37 -61.5t130 -74.5t138 -73q82 -47 132 -84t102.5 -93.5t77 -128t24.5 -161.5 q0 -162 -116 -277.5t-267 -125.5v-201q0 -2 -20 -2h-49q-30 0 -58.5 1t-50.5 1l-21 2q-8 0 -18 221q-119 35 -164 90q-2 -18 -4 -51t-4 -53l-2 -23l-269 19q-4 45 -4 520z" />
<glyph unicode="%" horiz-adv-x="1705" d="M51 1077q0 147 94.5 216t245.5 69q145 0 234.5 -76t89.5 -209q0 -123 -82 -209t-239.5 -86t-250 72.5t-92.5 222.5zM178 117l252 342l502 678q252 338 260 338q14 0 105.5 -78t86.5 -94q-6 -29 -494.5 -713t-508.5 -670q-14 10 -65.5 57.5t-95.5 92.5t-42 47zM307 1073 q0 -70 86 -69q78 0 78 69q0 78 -78 78q-86 0 -86 -78zM883 264q0 168 103.5 246t270.5 78q162 0 260.5 -85t98.5 -239q0 -139 -91 -235.5t-265.5 -96.5t-275.5 82t-101 250zM1157 252q0 -43 33 -65.5t76 -22.5q88 0 88 88q0 98 -92 98q-105 0 -105 -98z" />
<glyph unicode="&#x26;" horiz-adv-x="1757" d="M55 346q0 82 29 162t69 137t79.5 102.5t68.5 67.5l29 23q-131 156 -131 280q0 162 100 266.5t293 104.5q168 0 281.5 -100.5t113.5 -272.5q0 -61 -20.5 -118.5t-51 -94.5t-60.5 -64.5t-50 -39.5l-21 -13l156 -186q141 150 170 195q-18 8 -46 32.5t-44 44.5l-19 21 q176 248 185 258q4 6 259 -146.5t257 -162.5q0 -4 -40 -78l-81 -146l-39 -71q-123 86 -125 86q-35 -49 -93 -122l-99 -120l-41 -47q33 -61 110 -61q25 0 48.5 15t39 36.5t27.5 43t18 36.5l7 16q2 0 63 -21l121 -44q59 -23 55 -23q-2 0 -8 -43t-27.5 -104.5t-57.5 -122 t-112.5 -103.5t-181.5 -43q-35 0 -69.5 5.5t-64.5 15.5t-55.5 21.5t-48.5 26.5l-42 28q-18 12 -36 28l-27 25q-9 8 -19 18l-11 12q-27 -27 -68.5 -57.5t-144 -67t-217.5 -36.5q-193 0 -310.5 120.5t-117.5 280.5zM428 406q0 -37 32 -64t64 -27q37 0 75 16.5t56 33.5l21 18 l-150 180q0 -2 -10 -9t-24.5 -21.5t-28.5 -32t-24.5 -42.5t-10.5 -52zM530 1120q0 -27 21.5 -58.5t44.5 -45.5q2 -4 21.5 8t39 37.5t19.5 54.5q0 84 -76 84q-31 0 -50.5 -23.5t-19.5 -56.5z" />
<glyph unicode="'" horiz-adv-x="579" d="M110 1439q-1 38 1 40t174 8t174 -2q0 -16 -50.5 -256t-60.5 -240q-4 0 -57 -2l-103 -4h-47l-2 37q-4 37 -8 90l-9 118q-5 65 -8 119t-4 92z" />
<glyph unicode="(" horiz-adv-x="819" d="M39 716.5q0 153.5 37 281.5t95 210t130 145.5t143.5 96.5t131 52.5t96.5 25.5t37 4q12 -16 23 -113.5t11 -122.5q0 -2 -42 -11t-101 -40t-118.5 -86t-101.5 -172t-42 -276q0 -90 15.5 -169t40 -135.5t57 -102.5t68.5 -76.5t73 -53t68.5 -35t57 -19.5t40.5 -9l14 -5 q-2 -2 -21 -61l-39 -118q-19 -58 -24 -58q-6 0 -38 7t-93 29.5t-126.5 58.5t-137.5 102.5t-127 151.5t-91 215t-36 283.5z" />
<glyph unicode=")" horiz-adv-x="819" d="M43 111l14 2q14 2 39 9t57.5 18.5t68.5 34t72 51t67.5 74.5t57 101.5t40 134t14.5 169.5q0 117 -22.5 210t-57.5 151t-78 100t-86 62.5t-77.5 32t-57 16.5t-22.5 7q0 6 10 65.5t18.5 115t5.5 55.5q53 0 168 -41q330 -117 447 -426q55 -150 55 -336q0 -154 -35.5 -284 t-91 -215t-127 -150.5t-137.5 -101.5t-127 -58.5t-93 -28.5t-38 -6q-4 0 -24 58l-38 118q-20 60 -22 62z" />
<glyph unicode="*" horiz-adv-x="851" d="M53 1102q0 6 76 67.5t76 65.5t-75 64.5t-75 66.5q0 8 53.5 67.5t61.5 63.5q6 2 79 -41t75 -43q4 0 15 37l21 74l11 37q156 0 157 -7q2 -4 6 -53l6 -95q3 -46 7 -46q2 0 45 17.5t85 32.5t46 11t28 -52l46 -95q23 -47 20.5 -47t-49.5 -15l-94 -29q-47 -15 -45 -17.5 t36 -27.5l68 -53l33 -24q0 -4 -37 -77t-43 -77q-14 -8 -170 97q-2 0 -2 -5.5t-1 -15.5t-1 -22v-26v-25v-21v-12q0 -12 -86 -31t-96 -12q-6 2 -6 194q0 2 -41 -20l-84 -46q-43 -24 -45 -24q-4 0 -52.5 78t-48.5 86z" />
<glyph unicode="+" horiz-adv-x="1273" d="M63 846l459 6v475l226 -22v-435h450q2 -182 -8 -192q-6 -6 -210 -25.5t-208 -21.5q-6 -4 -12 -237.5t-8 -235.5q-6 -6 -107.5 -10.5t-107.5 10.5q-2 10 -11 131l-16 236q-8 116 -10 118t-204 -5t-208 -1q-4 4 -11 56t-11.5 102.5t-2.5 50.5z" />
<glyph unicode="," horiz-adv-x="630" d="M117 193q-2 96 57 154.5t143 58.5q80 0 140.5 -60.5t72.5 -142.5q47 -291 -20.5 -464t-247.5 -208q-8 18 -21.5 59t-21.5 74l-8 33q115 10 156 117q33 88 -9 143q-20 27 -53 27q-100 0 -142 52.5t-46 156.5z" />
<glyph unicode="-" horiz-adv-x="868" d="M90 641q10 6 342 37t334 20q4 -12 -6 -160.5t-15 -148.5q-2 0 -308 -21.5t-314 -21.5q-10 0 -24.5 145.5t-8.5 149.5z" />
<glyph unicode="." horiz-adv-x="630" d="M117 193q-2 96 57 154.5t143 58.5t148.5 -61.5t64.5 -141.5q0 -92 -47 -155.5t-143 -63.5q-104 0 -161.5 55.5t-61.5 153.5z" />
<glyph unicode="/" d="M78 59q0 4 304 740.5t308 740.5q233 -94 234 -104q0 -18 -303.5 -770t-323.5 -746q-23 6 -121 69.5t-98 69.5z" />
<glyph unicode="0" horiz-adv-x="1220" d="M68 692q0 215 44 368.5t122.5 236.5t171 119t205 36t206.5 -38t176 -121t128 -238.5t46 -368.5q0 -739 -546 -739q-98 0 -177 19.5t-151 70.5t-120 134t-76.5 215t-28.5 306zM457 684q0 -348 145 -348q152 0 152 326q0 385 -146 385q-76 0 -113.5 -103.5t-37.5 -259.5z " />
<glyph unicode="1" d="M61 1122q0 4 111 98l222 184q112 91 112 89l278 -96l-12 -1061q2 -4 42 -4t85 -2t53 -11q12 -18 8 -162.5t-10 -152.5q-2 -4 -784 -4q-4 0 -6 81t-2 161v82l213 6l20 639q-156 -72 -172 -76q-8 -2 -47 53t-74 112.5t-37 63.5z" />
<glyph unicode="2" horiz-adv-x="1087" d="M63 291l125 153l104 127l82 101l65 81l48 61q25 32 36 50l23 38q11 19 15 33.5t6 29t2 30.5q0 25 -25.5 48.5t-51.5 23.5q-57 0 -105.5 -24.5t-67.5 -49.5l-20 -24q-14 -12 -67.5 52t-100.5 139t-47 91q0 10 16.5 33t53 53.5t86 57t123 45t155.5 18.5q221 0 360.5 -98 t139.5 -297q0 -123 -70.5 -250t-326.5 -457l397 6q10 -12 13 -102t-2 -173t-13 -83q-16 4 -459.5 -3t-452.5 -1q-10 6 -28.5 129t-12.5 162z" />
<glyph unicode="3" horiz-adv-x="1087" d="M59 291q215 246 232 246q4 0 35.5 -44t90 -88.5t126.5 -44.5q41 0 61.5 28t20.5 54q0 68 -56.5 100.5t-144.5 32.5q-8 8 -8 80t4 140l4 65q41 0 59.5 1t52 7t50 17.5t30 36t13.5 61.5q0 47 -29 73.5t-72 26.5q-49 0 -99 -31.5t-77 -64.5l-24 -33q-8 8 -22.5 20.5 t-49.5 45.5t-61.5 61.5t-47 57t-18.5 43.5q4 23 32.5 64.5t79 90.5t135.5 85t179 36q213 0 347 -115.5t134 -326.5q0 -49 -15 -95.5t-37.5 -76t-45.5 -52t-37 -32.5l-16 -10l18 -13q12 -8 42 -35.5t52.5 -60.5t41 -86t18.5 -113q0 -211 -144.5 -339t-343.5 -128 q-106 0 -198 33t-147.5 79t-94.5 92t-55 79z" />
<glyph unicode="4" horiz-adv-x="1140" d="M74 647l2 203q2 203 6 405.5t4 204.5l315 10l-2 -501h138l16 334q332 -8 336 -11l6 -342q160 2 160 -4v-315q0 -6 -176 -6q-4 0 -5 -336q0 -2 33 -3t70 -4t45 -10q4 -2 7 -18t4 -41t1 -52.5t-1 -56t-1 -50.5v-38l-2 -16q0 -4 -694 -4q-4 10 -3 76.5t3 144.5l4 76l182 6 l10 322q-456 26 -458 26z" />
<glyph unicode="5" d="M18 291q215 246 232 246q4 0 35.5 -44t90 -88.5t126.5 -44.5q41 0 61.5 26t20.5 52q0 213 -418 213l-53 62l53 721q14 0 39 1l96 4q72 3 137.5 5t149.5 4t147.5 3t113.5 -1t64 -6q-35 -315 -45 -320l-354 -16l-14 -158q10 -2 28.5 -4t72.5 -16.5t102.5 -35t108.5 -61 t102 -91t72 -128t30 -172.5q0 -211 -144.5 -339t-343.5 -128q-106 0 -198 33t-147.5 79t-94.5 92t-55 79z" />
<glyph unicode="6" horiz-adv-x="1087" d="M59 584q0 141 51.5 285.5t125 248t147.5 187.5t125 127l51 43q-4 4 75 -35t161 -91.5t94 -84.5q0 -2 -26.5 -20.5t-66.5 -50.5t-83 -70t-81 -86t-54 -91q84 -18 160.5 -55t146 -96.5t111.5 -151.5t42 -203q0 -223 -131 -343t-325 -120q-96 0 -185.5 36t-166 105.5 t-124 190.5t-47.5 275zM445.5 519.5q-3.5 -64.5 38.5 -120t116 -55.5q33 0 61.5 26.5t28.5 73.5q0 88 -73.5 137.5t-147.5 49.5q-20 -47 -23.5 -111.5z" />
<glyph unicode="7" horiz-adv-x="1216" d="M67.5 1251q-12.5 121 8.5 160q6 6 37.5 11t78 7.5t107.5 4.5t128 2t136 -1l135 -2q66 -1 124.5 -2t101.5 -2.5t69 -3.5h27l147 -198q-549 -1264 -553 -1264t-89 30t-189.5 75t-138.5 73l465 920l-234 2l10 -182l-309 -11q-4 4 -26.5 132t-35 249z" />
<glyph unicode="8" horiz-adv-x="1220" d="M68 406q0 238 157 348q-119 96 -119 299q0 129 77 223t181.5 135t213.5 41q106 0 213.5 -42t187.5 -138t80 -223q0 -195 -121 -293q172 -113 172 -357q0 -199 -151.5 -313.5t-356.5 -114.5q-98 0 -189 26t-170 76t-127 136t-48 197zM463 444q0 -131 127 -131 q135 0 135 121q0 63 -31.5 102t-97.5 39q-68 0 -100.5 -37t-32.5 -94zM469 1057q0 -98 111 -99q113 0 112 93q0 106 -108 106q-57 0 -86 -27.5t-29 -72.5z" />
<glyph unicode="9" horiz-adv-x="1089" d="M55 1004q0 223 134.5 344.5t328.5 121.5q98 0 187.5 -26.5t169 -86t128 -172t48.5 -265.5q0 -141 -48.5 -293t-118 -267.5t-139 -211t-118.5 -144.5l-47 -51l-9 2q-8 4 -23 10l-37 16q-22 9 -45 20l-49 25q-26 13 -52.5 28.5t-49 31.5t-42 33.5t-31.5 34.5l55 55 q55 55 123.5 140t93.5 153q-84 18 -159.5 55t-145.5 95.5t-112 149.5t-42 202zM410 1004q0 -88 70.5 -132.5t146.5 -44.5q20 47 24 108.5t-37 115t-114 53.5q-33 0 -61.5 -26.5t-28.5 -73.5z" />
<glyph unicode=":" horiz-adv-x="630" d="M117 193q-2 96 57 154.5t143 58.5t148.5 -61.5t64.5 -141.5q0 -92 -47 -155.5t-143 -63.5q-104 0 -161.5 55.5t-61.5 153.5zM117 930q-2 96 57 154.5t143 58.5t148.5 -61.5t64.5 -141.5q0 -92 -47 -155.5t-143 -63.5q-104 0 -161.5 55.5t-61.5 153.5z" />
<glyph unicode=";" horiz-adv-x="630" d="M117 193q-2 96 57 154.5t143 58.5q80 0 140.5 -60.5t72.5 -142.5q47 -291 -20.5 -464t-247.5 -208q-8 18 -21.5 59t-21.5 74l-8 33q115 10 156 117q33 88 -9 143q-20 27 -53 27q-100 0 -142 52.5t-46 156.5zM117 930q-2 96 57 154.5t143 58.5t148.5 -61.5t64.5 -141.5 q0 -92 -47 -155.5t-143 -63.5q-104 0 -161.5 55.5t-61.5 153.5z" />
<glyph unicode="&#x3c;" d="M74 786q0 10 393 163t401 145q10 -8 42 -92t28 -93q-4 -6 -258 -118l-252 -113q-2 -2 135 -67l278 -129q140 -65 144 -64.5t-12 -47.5l-35 -99q-18 -50 -22.5 -54t-204.5 90l-404 191q-203 96 -211 96q-22 -1 -22 192z" />
<glyph unicode="=" d="M76 950q0 27 2 25q850 4 872 -35q10 -23 5 -62.5t-14 -76.5t-11 -39t-417 8t-425 12q-14 2 -12 168zM105.5 457q-11.5 84 0.5 96q4 4 411 18.5t407 8.5q0 -10 -9.5 -124t-11.5 -114q-63 0 -416.5 7t-359.5 13q-10 11 -21.5 95z" />
<glyph unicode="&#x3e;" d="M90 909q-4 8 28 92t42 93q8 8 411.5 -144.5t403.5 -163.5q0 -2 2 -24.5t3 -48.5l2 -55q1 -28 -1 -46t-8 -18q-8 0 -201 -112l-383 -221q-190 -110 -194.5 -105.5t-22.5 54.5l-35 98q-16 48 -12 48t144 75l278 150q137 75 135 76l-293 123q-295 123 -299 129z" />
<glyph unicode="?" horiz-adv-x="1087" d="M135 1182q4 23 32 65.5t77 94t133 89t178 37.5q211 0 346 -125.5t135 -338.5q0 -139 -50 -236.5t-140 -143.5t-193.5 -62.5t-228.5 -6.5q-8 8 -8 85t4 148l4 72q41 0 59.5 1t52 7t50 17.5t30 36t13.5 61.5q0 47 -29 74.5t-72 27.5q-49 0 -98 -32.5t-74 -65.5l-22 -33 q-8 8 -22.5 20.5t-49.5 45.5t-61.5 61.5t-47 57.5t-18.5 43zM348 193q-2 96 57.5 154.5t143.5 58.5t148.5 -61.5t64.5 -141.5q0 -92 -47 -155.5t-144 -63.5q-104 0 -161.5 55.5t-61.5 153.5z" />
<glyph unicode="@" horiz-adv-x="2058" d="M35 510q0 145 32.5 281.5t110.5 265.5t192.5 224t294 153.5t400.5 58.5q420 0 678 -207t258 -598q0 -766 -827 -723l-11 139q-8 -12 -24.5 -29.5t-77 -47t-133.5 -29.5q-59 0 -123 26.5t-123 80t-97 147.5t-38 215q0 195 123 306.5t264 111.5q59 0 111.5 -11.5 t74.5 -21.5l23 -12l26 94q86 4 172 5t172 -1q0 -4 3.5 -64.5t5.5 -115.5l2 -58q-4 0 -58.5 -14t-56.5 -16l14 -400q33 -2 78 16.5t94.5 61.5t83 129t33.5 199q0 59 -18.5 126.5t-65.5 143.5t-117.5 135.5t-187.5 99.5t-260 40q-193 0 -337 -65.5t-222 -174.5t-115 -224.5 t-37 -236.5q0 -80 21.5 -157.5t52.5 -134t73 -113t72 -85.5l64 -61q33 -31 35 -32q0 -16 -60.5 -68.5t-120.5 -97.5l-59 -43q-16 12 -43 36.5t-94.5 104.5t-119.5 166t-95 216t-43 259zM842 438q0 -84 38 -131t87 -47q57 0 91 45t34 129q0 80 -34 132t-85 52 q-131 0 -131 -180z" />
<glyph unicode="A" horiz-adv-x="1435" d="M53 209v61l135 33q41 225 104.5 508t106.5 453l43 170q39 10 107 9h35q92 -3 182 -13l92 -9l399 -1128h119v-301l-499 -19q-68 0 -74 4q-14 10 -27 150q-7 76 -7 112q0 30 5 31l105 6l-56 166l-276 4l-27 -135l139 -18q2 -18 4.5 -45t7.5 -99.5t5 -99.5v-45l-594 -29 q-12 27 -19.5 101t-9.5 133zM582 698l182 11l-102 266z" />
<glyph unicode="B" horiz-adv-x="1327" d="M60 1218v22q0 65 6 118l4 61q367 20 589 21q41 0 84 -4t112 -15.5t127 -39t112.5 -67.5t86 -106.5t31.5 -152.5q0 -70 -23.5 -129.5t-57 -96t-68.5 -62.5t-58.5 -38t-23.5 -14l10 -4q10 -4 27 -13l38 -19q22 -11 46 -27.5t49 -37t46.5 -48t37.5 -58.5t26.5 -71t10.5 -83 q0 -96 -29 -166.5t-79 -113.5t-129 -68.5t-165 -35t-200 -9.5q-276 0 -598 31q-6 55 -6 133q0 29 1 61q3 119 11 133q6 8 43 10h24q24 0 48 -1l32 -2l29 626q2 58 2 94q0 53 -4 56q-8 4 -52 5h-29q-29 0 -56 -1l-41 -2q-13 35 -14 114zM604 848q0 -4 56.5 1t114 38t57.5 99 q0 73 -55 104q-47 26 -94 25q-10 0 -19 -1l-56 -8zM610 301q262 0 262 121q0 66 -65 94q-57 25 -115 25h-16l-64 -4z" />
<glyph unicode="C" horiz-adv-x="1308" d="M53 717q0 186 52.5 327.5t139.5 222.5t189.5 119.5t214.5 38.5q70 0 130.5 -21.5t84.5 -43.5l27 -21l22 121l62 -6q59 -4 140 -18.5t120 -38.5q5 -17 5 -85q0 -23 -1 -51q-2 -114 -8 -245l-6 -129l-330 -41q-2 8 -6 22.5t-20.5 51t-39 64.5t-65.5 50.5t-94 22.5 q-84 0 -140.5 -88t-56.5 -252t78 -245t170 -81q59 0 117.5 31t87 58.5t45.5 49.5q41 -43 107.5 -106.5t113.5 -104.5l47 -43l-16 -32q-10 -20 -54.5 -72.5t-97.5 -92.5t-147.5 -73t-202.5 -33q-123 0 -239.5 48.5t-213 137.5t-156 234.5t-59.5 323.5z" />
<glyph unicode="D" horiz-adv-x="1382" d="M43 1391q10 6 66.5 19t171.5 25q84 8 173 8q33 0 66 -1q248 -4 338 -21q360 -66 455 -415q35 -129 35 -301q0 -162 -26 -286t-77 -205t-112.5 -134t-145.5 -80t-161.5 -37t-178.5 -10q-92 0 -231.5 10t-233.5 20q-77 8 -94 7h-4l-2 35q-2 33 -6 81t-7 100t-4.5 86t3.5 40 q6 4 46 9t79 7l36 4l23 707q-158 -14 -162 -15q-2 0 -16.5 84t-25.5 171q-7 56 -7 78q0 13 2 14zM610 330q27 -4 53 -4q107 0 179 63q88 78 88 299q0 113 -21.5 190.5t-54.5 110.5t-74 52q-32 15 -62 16q-8 0 -16 -1q-26 -4 -48 -4q-9 0 -17 1q-8 -2 -12 -2 q-21 -364 -21 -558q-1 -108 6 -163z" />
<glyph unicode="E" horiz-adv-x="1325" d="M104 1446q2 6 274.5 9t543.5 3l272 -2q8 -12 14 -38.5t8.5 -61.5t3.5 -77q1 -21 0.5 -41.5t-0.5 -41.5q-1 -41 -3.5 -81l-4.5 -69.5t-4 -50.5v-18q0 -4 -140 -6q-70 -1 -108.5 -1t-46.5 1q-6 0 -12 36.5t-9 75.5t-3 41q-2 4 -116 6q-38 1 -63 1q-51 0 -54 -2.5t-3 -54.5 v-64q2 -115 6 -117q2 0 55.5 -2t104.5 -5t51 -5t2 -32l4.5 -70t3.5 -83t2 -68.5t-1 -29.5q-2 0 -59.5 -3t-113 -7t-57.5 -6q-4 -6 -4 -269q8 -4 63.5 -3t120 6.5t64.5 7.5q0 4 28.5 109.5t28.5 107.5h4q13 0 79 -6q83 -8 167 -18.5t84 -12.5q0 -10 -19.5 -263t-21.5 -255 q-2 0 -561 6q-335 4 -471 3q-90 0 -92 -1q-2 -2 -3 28q-1 15 -1 33t1 40l2 89q1 45 4 78t7 37q6 6 38 8t60 2h29l12 793q0 33 -2 33l-137 -13z" />
<glyph unicode="F" horiz-adv-x="1261" d="M78 1112q2 270 28 322q1057 -12 1068 -19q4 -2 10 -109.5t8 -211.5l4 -107l-227 -41q-53 -6 -58 0q-6 8 -11 43t-7 66l-4 30l-223 2q6 -256 10 -256q10 0 108.5 -11t98.5 -15q0 -23 -4.5 -159t-6.5 -136t-103 -2t-103 -2q-2 -8 -1 -54t5 -102.5t6 -58.5t50 -4l94 -4 q46 -2 46 -4.5t11 -74.5l20 -147l8 -71l-815 -6q-4 16 -7 142q-1 34 -1 60q0 69 6 76l176 21q-8 809 -14 817q-2 4 -45 8t-86 6z" />
<glyph unicode="G" horiz-adv-x="1583" d="M55 686v13q0 195 60 344q61 155 167.5 243t229.5 131t258 43q174 0 277 -84q4 18 7 49t7 52l2 20q6 0 164.5 -26.5t161.5 -30.5l-37 -500l-348 -29q-47 195 -226 195q-133 0 -213 -125q-82 -128 -82 -300q0 -143 86 -259q88 -119 232 -119q61 0 101 33t48 65l8 31 l-172 -2q-16 18 -22 90q-5 54 -5 103q0 16 1 32l2 62q37 7 115 7q39 0 90 -2q150 -5 307 -17l160 -11q20 -96 39.5 -359t19.5 -335q0 -4 -83 -9t-165 -9l-82 -5l-20 140q-47 -63 -149.5 -121.5t-219.5 -58.5q-336 0 -525.5 198.5t-193.5 550.5z" />
<glyph unicode="H" horiz-adv-x="1540" d="M68 1220q2 67 6 140l4 76l592 -11l14 -290l-143 -15l10 -225l395 -18l-4 251q-119 12 -121 12.5t-8 43.5t-10 112q-3 46 -3 87q0 20 1 38q112 26 255 26h11q150 -1 279 -17l129 -15q-6 -281 -11 -280l-151 -25l26 -809l142 -16v-293q-41 0 -99.5 -1t-218.5 -3 q-106 -1 -168 -2q-31 0 -50 1q-58 1 -99 1l-6 299l143 14l-6 270l-416 13q-1 -85 -1 -147q0 -153 7 -152q2 0 18.5 1t35.5 1h37q19 0 33 -2t14 -6.5t7 -74t11 -133.5q2 -32 2 -49t-2 -18q-16 -6 -314 -8h-52q-248 0 -273 18q-13 25 -13 121v13q1 108 9 116q4 4 41 9.5 t72 9.5l34 2l-28 845q-34 -1 -59 -1q-63 0 -70 8q-3 11 -3 44q0 17 1 39z" />
<glyph unicode="I" horiz-adv-x="899" d="M88 1220q2 67 6 140l4 76l674 10l14 -291l-184 -35l27 -827q178 0 178 -14q0 -2 1 -33t3 -70t3 -78q1 -19 1 -35.5t-1 -29.5q-1 -27 -3 -29q-16 -6 -348 -8h-58q-276 0 -301 18q-13 25 -13 126v15q1 114 9 121q2 2 18.5 4.5t38.5 2.5h42h34h15l-29 847q-34 -1 -59 -1 q-63 0 -70 8q-3 11 -3 44q0 17 1 39z" />
<glyph unicode="J" horiz-adv-x="1210" d="M33 231l151 148q92 82 113 82h2q12 -2 40 -41t72 -75t95 -36q63 0 97 39t34 105l-10 622q-106 -2 -163.5 -2t-66.5 2q-12 2 -22 122t-10 212q100 25 291 34q157 8 280 7h53q141 -2 144 -6q23 -76 28 -344l-137 -23q15 -271 15 -562q0 -36 -1 -73q-2 -147 -48 -255.5 t-120.5 -164t-153.5 -81t-163 -25.5q-102 0 -193.5 33t-148.5 79t-99 92t-61 79z" />
<glyph unicode="K" horiz-adv-x="1435" d="M59 1153q-1 1 0 16q0 30 2 117q4 131 6.5 135t274.5 16q176 7 242 7q36 0 39 -2q6 -8 6 -150.5t-4 -148.5l-86 -35v-211q297 262 297 274q0 6 -21.5 7.5t-44 3.5t-25.5 6q-2 6 -10 124t-8 130q0 4 151 6q60 1 120 1q90 0 180 -2q150 -3 149 -9v-273q-4 -6 -53 -12t-51 -8 q-6 -4 -145 -137q-145 -139 -144 -145q0 -20 151 -290q158 -281 166 -284q4 -2 35 -5t60 -5l28 -5q2 -2 9 -130q5 -81 5 -112q0 -17 -2 -18q-8 -6 -305 -15q-107 -3 -177 -3q-124 0 -132 10q-4 12 -11 80t-11.5 128t-1.5 60l34 -4q35 -2 59.5 -3t30.5 1q0 6 -92 192.5 t-100 192.5q-1 1 -2 1q-12 0 -64 -51q-57 -56 -71 -73q-3 -12 -3 -36q0 -12 1 -28q2 -46 4 -110l4 -65q0 -6 63.5 -15.5t63.5 -11.5t-4 -127t-4 -131q0 -4 -144.5 -7t-290.5 -3h-143q-2 6 -10 145q-5 80 -5 114q0 26 3 26l147 10l-4 846q-160 12 -162 16z" />
<glyph unicode="L" horiz-adv-x="1177" d="M46 224v34q0 29 1 41q2 2 70.5 5t70.5 5t4.5 162t6.5 364.5t10 288.5q-6 4 -32.5 4t-59.5 -2t-35 -2q-6 2 -12 157q-2 52 -2 87q0 71 8 78q2 1 31 1q43 0 147 -2q172 -3 341 -7t169 -6l2 -15v-33q0 -20 1 -48l2 -55q1 -28 1 -55v-49q0 -22 -1 -35.5t-3 -13.5l-168 -22 q-8 -66 -16.5 -264.5t-12.5 -364.5q-3 -111 -2 -147v-19q207 0 211 8q2 4 36 131.5t34 133.5q0 2 8 1q25 0 125 -14q133 -18 139 -22q2 -2 5 -145.5t3 -265.5t-2 -142h-12q-472 -7 -735 -7q-328 0 -328 11q0 6 -2 87t-3 137z" />
<glyph unicode="M" horiz-adv-x="1636" d="M60 1276q-2 61 -2 100q0 62 5 68q8 8 243 8t243 -6q6 -4 112.5 -174t118.5 -195q8 16 129 188.5t129 178.5q6 4 132 5h84q84 0 166 -1q124 -2 124 -4l2 -152q2 -152 2 -162q0 -20 -149 -20q-2 0 -2 -198.5t2 -401.5t6 -209t43 -8t77 -3t38 -7q0 -4 5 -81t9 -147.5 t2 -70.5h-174q-174 0 -344 4t-170 16q0 281 4 281t39 1l66 2q32 1 32 3l4 571q-143 -215 -147 -215l-29 -4q-31 -2 -64.5 -5t-63.5 -5t-32 0t-38 59l-74 115l-37 55l2 -133l8 -274q4 -139 4 -144q0 -6 73 -13t73 -9l4 -76q4 -76 7 -146q2 -42 2 -60q0 -11 -1 -11l-645 10 q0 -2 -3 27.5t-6 71.5l-6 86q-1 29 -1 54v22q1 32 6 34q6 4 42.5 4t68.5 1t32 3q0 745 -6 789q0 6 -29 6t-55.5 -1t-40.5 5q-15 8 -20 168z" />
<glyph unicode="N" horiz-adv-x="1468" d="M33 1427q2 2 34 3h77q46 0 101.5 -1.5t100.5 -1.5t78 -2h33q2 0 250.5 -356t253.5 -358q3 10 2 55v54q-2 95 -7 206l-4 111q-166 10 -168 10t-10 72.5t-12 136.5q-2 25 -2 42q0 26 4 34q12 4 333 6q107 1 178 0q142 0 142 -2l2 -31q2 -31 3 -71t3 -81q1 -27 2 -48 q0 -11 -1 -20q-1 -28 -5 -28q-12 0 -75.5 -7t-63.5 -9l4 -121q2 -123 6 -288t7.5 -342t4.5 -285v-61q0 -51 -1 -58q-2 0 -53.5 -4.5t-107 -7.5t-106.5 -4h-18q-33 0 -35 3l-434 729q0 -399 10 -411q4 -4 40 -9.5t69.5 -9.5t33.5 -10q0 -2 7.5 -68.5t11.5 -114.5q2 -19 2 -34 q0 -21 -4 -31q-2 -2 -40 -5t-95.5 -5t-124.5 -5l-135 -6q-68 -3 -123.5 -4t-90 -1t-32.5 2q1 2 1 11q0 28 -8 120q-10 106 -10 123q0 5 70 15q66 9 68 11t2 80.5t-2 233.5q-4 309 -13 483q-23 -2 -75 -2t-56 4t-16 179q-8 117 -8 158q0 20 2 21z" />
<glyph unicode="O" horiz-adv-x="1488" d="M61 731q0 197 54.5 343.5t154 230.5t222 123.5t272.5 39.5q297 0 481.5 -197.5t184.5 -543.5q0 -150 -40 -284t-118 -243.5t-208 -173t-298 -63.5q-326 0 -515.5 188.5t-189.5 579.5zM485 711q0 -166 83 -252t194 -86q106 0 172.5 81t66.5 259q0 170 -59 272t-182 102 q-275 1 -275 -376z" />
<glyph unicode="P" horiz-adv-x="1214" d="M55 1384q0 45 4 48q35 10 514 10q96 0 174 -10.5t157 -39t132.5 -77.5t85.5 -134q31 -80 31 -185v-13q-4 -463 -571 -463v-65v-58q0 -25 1 -43t1 -30v-11q0 -2 96 -18t102 -16q2 0 5.5 -68t3.5 -138.5t-5 -76.5q-25 -5 -138 -5h-41q-151 1 -324 5l-172 4q-2 0 -12.5 72.5 t-15.5 138.5q-2 22 -2 38q0 33 7 44q10 6 46 8t67 2h30q-18 795 -24 797l-139 -4zM575 1094l9 -254q0 -3 16 -4q13 0 38 3q54 5 108.5 39.5t54.5 104.5q0 63 -57 91q-49 24 -98 24h-15z" />
<glyph unicode="Q" horiz-adv-x="1540" d="M76 721q0 330 186.5 537.5t476.5 207.5q309 0 503 -190.5t194 -568.5q0 -635 -451 -746q14 -63 37 -82q16 -12 41 -16q17 -4 36 -4q78 0 187 69l32 -69q19 -43 48 -127t25 -111q-33 -61 -159 -99q-76 -23 -156 -23q-51 0 -103 9q-113 23 -198 76.5t-128 122t-64.5 131 t-25.5 121.5q-229 59 -355 266t-126 496zM477 702q0 -162 74 -276q72 -113 214 -113h5q260 2 260 367q0 406 -258 405q-143 0 -219 -112.5t-76 -270.5z" />
<glyph unicode="R" horiz-adv-x="1429" d="M70 247q2 28 12 27q35 0 83 6.5t48 14.5v821q-37 -1 -65 -1q-68 0 -70 7q-2 4 -2 44t2 115q4 151 10 157q23 3 69 2h52q86 -2 237.5 -5t192.5 -3q59 0 97 -1t106.5 -8.5t115 -22t102.5 -42t91 -66.5t58.5 -99t23.5 -138q0 -80 -20.5 -149.5t-49 -111.5t-58.5 -72t-50 -42 l-21 -12l199 -406q60 2 90.5 2t30.5 -2l2 -41q2 -43 5 -90t4 -90v-24q0 -20 -1 -23q-3 -8 -186 -8q-55 0 -125 1q-307 3 -310 15q-4 18 -4 136t9 118q94 0 94 12q0 8 -68.5 157.5t-73 149.5t-78 -8t-77.5 -8t-5 -73q0 -24 -1 -48q0 -48 2 -97q2 -73 10 -73q88 0 88 -8v-260 l-547 6q0 -2 -4 25.5t-9 66.5t-8 80q-2 25 -2 45q0 13 1 24zM551 866l45 2q45 0 91 7.5t86 45t40 103.5q0 55 -64 78q-51 18 -102 18q-14 0 -29 -2l-65 -4v-42q0 -26 -1 -81t-1 -91t0 -34z" />
<glyph unicode="S" horiz-adv-x="1161" d="M59 504q158 35 259 35q35 0 63 -4q27 -98 80 -155.5t106 -57.5q47 0 80 24.5t33 69.5q0 33 -13.5 60.5t-43 50t-53 37t-71.5 37.5l-73 36q-86 45 -136 79t-108.5 92t-86 138t-27.5 184q0 158 120.5 263.5t321.5 105.5q150 0 227 -82l15 99q34 1 65 1q164 0 248 -36 q2 -1 2 -18q0 -25 -4 -85q-6 -100 -14.5 -219t-8.5 -143q0 -14 -79 -21q-68 -5 -137 -5h-23q-80 1 -80 5q-6 82 -48 123t-95 41q-39 0 -76 -23.5t-37 -76.5q0 -33 37 -61.5t130 -74.5t138 -73q82 -47 132 -84t102.5 -93.5t77 -128t24.5 -161.5q0 -170 -124 -288t-282 -118 q-217 0 -317 115q-2 -18 -4 -51t-4 -53l-2 -23l-310 19q-4 45 -4 520z" />
<glyph unicode="T" horiz-adv-x="1429" d="M34 995v46q0 113 4 230q5 140 15 152q10 10 329.5 25.5t636.5 25.5q219 6 287 6q30 0 31 -1q2 -6 6 -307q3 -200 3 -270v-38q-1 -6 -73 -6q-27 0 -64 1q-134 3 -138 9l-27 254q-141 -2 -151 -4q-1 -4 -1 -25t1 -60q2 -77 7 -202l10 -241l10 -205l4 -86q0 -2 54 -1t102 3 t61 -2q6 -6 12 -142q3 -68 3 -106t-3 -45q-6 -14 -438 -15h-156q-277 0 -276 3q-1 2 -1 25q0 35 2 118q3 139 5 142l63 4q63 6 125 14t62 16l-17 805l-170 -2q-10 -252 -10 -260q0 -2 -30 -3q-15 -1 -33 -1t-39 1q-43 1 -86 3t-77 3t-36 1q-6 0 -7 135z" />
<glyph unicode="U" horiz-adv-x="1505" d="M39 1417q-1 -1 9 0q29 0 151 4l325 13q123 5 154 4h10q2 -8 8 -153q3 -72 3 -110t-3 -42l-110 -17q6 -532 6 -575q0 -70 43 -117t131 -47q86 0 129 42t43 113l-2 594h-121l-4 306q35 12 188 14q77 1 150 1t141 -1l135 -4q12 -283 13 -287l-119 -35q2 -510 2 -600 q0 -258 -143.5 -402.5t-413.5 -144.5q-264 0 -411.5 150.5t-147.5 419.5l-4 571l-150 23z" />
<glyph unicode="V" horiz-adv-x="1509" d="M58 1275q3 161 8 161q627 -4 634 -6q4 0 11.5 -81t13.5 -161l4 -80q-98 -14 -111 -14q-6 0 33 -117t82 -234l41 -116l28 80l54 153l60 174q24 70 22 70q-4 0 -53 -2t-51 -2q-4 0 -18 164q-10 125 -10 157q0 10 1 11q3 3 206 3h113q315 -1 318 -5q1 -3 1 -77v-91 q-1 -164 -3 -168q-2 -6 -137 -7q-4 0 -94 -269l-180 -542q-91 -272 -97 -276q-12 -6 -174 -6t-170 6q-4 2 -105 276l-198 547l-97 275q-109 16 -124 16q-8 0 -8 95q-1 29 0 66z" />
<glyph unicode="W" horiz-adv-x="1998" d="M53 1137q-3 0 -3 17t3 51q6 69 15.5 139.5t9.5 66.5q670 10 676 10q2 0 3 -75q1 -38 0.5 -74t-0.5 -69q0 -22 -1 -39q0 -33 2 -44q0 -2 -11.5 -4t-30 -3l-38.5 -2l-40 -2q-19 -1 -31 -1h-15q-2 0 25.5 -109.5t59.5 -219t34 -107.5t47 113l90 223l45 112q199 0 215 -8 q2 0 63 -118l122 -232q60 -115 61 -111q0 2 21 117l43 227q22 113 20 113q-199 0 -211 6q-4 2 -6 150q-1 74 -1 111.5t1 39.5q4 6 729 6q4 0 5 -77.5t1 -155.5v-76q-131 -10 -133 -10l-267 -1106q-283 -4 -290 -4q-4 0 -132 271.5t-132.5 271.5t-66.5 -137l-124 -271 l-61 -137q-240 0 -256 6q-10 4 -150.5 557t-144.5 557q-6 10 -66 18.5t-80 8.5z" />
<glyph unicode="X" horiz-adv-x="1542" d="M104 1456q0 2 31 2q33 0 88.5 -1t121 -2t133 -3t123.5 -3t94 -2t40 -1q8 0 10 -67q1 -33 1 -66.5t-1 -67.5v-65l-108 -6l143 -201q10 12 26 34l47 65l53 74q22 30 20 30q-80 0 -92 4q-5 9 -5 43v25q2 56 7 122l4 66q578 0 583 -4q4 -2 8 -132q1 -55 1 -88q0 -44 -2 -47 q-2 -4 -30 -4t-54 2l-27 2l-303 -430l340 -448q104 -8 112 -19q4 -4 7.5 -67.5t3.5 -124.5l2 -62l-621 -20l-10 258l102 16q-152 205 -153.5 205t-83.5 -106.5t-82 -108.5t21.5 -3t46 -3t28.5 -2q10 -2 10 -244q0 -6 -630 -6q-2 2 -1 28.5t3 69.5l4 83q2 40 4 71l2 31 l119 10l319 407l-338 465q-86 -2 -102 -2q-6 0 -8 72t-2 144q0 14 -0.5 26.5t-1.5 21t-1.5 15t-1 10t-0.5 4.5z" />
<glyph unicode="Y" horiz-adv-x="1437" d="M74 1116v158q2 158 2 162l602 -11l22 -280q-2 -4 -98 -4l35 -39l72 -82l34 -41q8 10 23.5 27.5t45.5 54.5l49 62q19 26 17.5 28t-81.5 2q-5 2 -5 81q0 26 1 61q2 140 4 143q1 1 23 0q57 0 253 -3q274 -5 284.5 -9.5t19.5 -139.5q6 -94 7 -124q0 -14 -2 -15q-6 -6 -125 -6 l-346 -463q6 -362 7 -383q0 -8 28.5 -10t60 -2t35.5 -4q6 -8 7 -275q0 -6 -318 -13q-247 -6 -304 -6q-16 0 -17 1q-4 2 -7 141q-1 70 -1 105t1 36q2 0 37 4t69 9.5t34 7.5v395q0 4 -77 109l-155 204q-76 98 -79 99q-18 0 -42 3l-77 10q-39 5 -39 7z" />
<glyph unicode="Z" horiz-adv-x="1314" d="M80 338q0 2 173 205l341 403q168 201 164 201q-266 0 -283 -10l-41 -181q-260 16 -280 27q-12 10 -12.5 229.5t3.5 223.5h385q683 0 682 -6q0 -2 10.5 -77t18.5 -147q5 -48 6 -64q0 -8 -2 -9q-4 -2 -165 -200l-318 -395q-158 -198 -156 -198q18 0 176 8t160 12 q2 2 10.5 58.5l17.5 112t11 55.5q39 0 145.5 -6.5t114.5 -18.5q5 -22 5 -96q0 -25 -1 -55q-2 -123 -8 -263l-6 -137h-1102q-2 0 -14 81l-25 163q-12 82 -10 84z" />
<glyph unicode="[" horiz-adv-x="808" d="M96 1456l625 27q2 0 3 -63.5t1 -120t-2 -68.5q-4 -4 -141.5 -17.5t-153.5 -13.5q-14 0 0 -1417v-6l289 -8q2 -258 -6 -263h-47q-45 0 -112 2.5t-144.5 4.5t-143 5t-110.5 3l-45 2z" />
<glyph unicode="\" d="M80 1436q0 4 58.5 30.5t115.5 49.5l59 24q4 -4 308.5 -740.5t304.5 -740.5q0 -6 -98.5 -69.5t-120.5 -69.5q-20 -6 -323.5 746t-303.5 770z" />
<glyph unicode="]" horiz-adv-x="808" d="M102 1279q0 56 1 119.5t3 63.5l625 -6q-51 -1933 -53 -1933q-553 0 -561 4q-4 2 -5 67.5t-1 131.5v63q18 0 47.5 -2t93 -5t104.5 -3l43 -2v6q14 1417 0 1417q-285 0 -295 10q-2 13 -2 69z" />
<glyph unicode="^" horiz-adv-x="872" d="M27 1395q-2 0 34 29l93 72l111 84l97 72q41 30 48 31q4 2 112 -68l215 -142l107 -72q-141 -211 -174 -227l-238 159l-235 -174q-12 2 -34 26.5t-44 59.5l-43 69l-35 58z" />
<glyph unicode="_" horiz-adv-x="1110" d="M86 -98.5q6 98.5 12 102.5q942 -8 942 -14t-7 -91t-9 -89.5t-464 -9.5t-472 -1q-8 4 -2 102.5z" />
<glyph unicode="`" horiz-adv-x="872" d="M90 1356q-4 2 21.5 71.5t56.5 141t39 73.5q4 2 151 -49l293 -102l144 -51q-74 -238 -107 -254q-6 -2 -290.5 80t-307.5 90z" />
<glyph unicode="a" horiz-adv-x="1320" d="M45 528q0 139 41 241.5t110.5 157t146.5 80t161 25.5q78 0 153.5 -25.5t112.5 -52.5l37 -24v102q109 4 217 6q36 1 72 1l145 -3q0 -4 3 -72.5t5 -134.5l4 -65q-4 0 -76.5 -16.5t-74.5 -18.5l4 -432q170 0 172 -12q3 -8 3 -99v-50q-1 -138 -7 -138q-35 0 -250 5t-215 9 l-21 105l-10 -16q-6 -9 -31.5 -31.5t-56.5 -41t-82 -32.5t-110 -14q-78 0 -152 27.5t-144.5 86t-113.5 170.5t-43 262zM408 522q0 -86 49 -140t112 -54q70 0 115 52t45 138q0 82 -44 140.5t-107 58.5q-78 0 -124 -51.5t-46 -143.5z" />
<glyph unicode="b" horiz-adv-x="1320" d="M43 1174l2 65q4 66 7 134.5t3 72.5t134.5 13t269.5 16l133 8v-512q8 8 24.5 20.5t79 34t140.5 21.5q68 0 127 -13.5t120.5 -49.5t104.5 -93t69.5 -151.5t26.5 -217.5q0 -150 -48 -262.5t-126 -171.5t-157 -88t-156 -29q-55 0 -101.5 9.5t-71 21.5t-44 27.5t-24.5 22.5 t-7 14l-21 -62q-2 -2 -36.5 -2t-81.5 2l-94 4q-46 2 -78.5 4t-30.5 2l4 1135q-2 2 -82 13.5t-86 11.5zM618 512q0 -96 40 -150.5t108 -54.5q61 0 96 53.5t35 153.5q0 223 -143 223q-59 0 -97.5 -65.5t-38.5 -159.5z" />
<glyph unicode="c" horiz-adv-x="1136" d="M53 530q0 137 44 243t117 166t156 91t169 31q70 0 126 -16.5t76 -32.5l23 -15l18 105h21q20 -2 53 -6t69 -9.5t73.5 -17.5t62.5 -29q5 -14 4 -69v-41q-2 -92 -8 -197l-4 -106l-330 -45q0 6 -2 16t-11.5 35.5t-22.5 45t-38.5 35t-58.5 13.5q-59 -2 -102.5 -51t-43.5 -146 q0 -90 52.5 -138t113.5 -48q16 0 34 3t30 7t24.5 11.5t20.5 13.5t17 14t13.5 12.5t10.5 12.5l6 8q37 -8 109.5 -64.5t128.5 -107.5l55 -53q-4 -10 -14.5 -24.5t-47 -54.5t-82 -69.5t-123 -54.5t-167.5 -25q-250 0 -411 147.5t-161 409.5z" />
<glyph unicode="d" horiz-adv-x="1320" d="M43 522q0 123 26.5 217.5t69.5 151.5t104.5 93t121 49.5t127.5 13.5q78 0 138 -19.5t83 -38.5l22 -18v213q-150 23 -157 28q-4 10 -5 38q0 14 1 33q3 56 8 122l4 63h522h8l2 -1155l164 -10l2 -303q2 0 -48 -2t-118.5 -3t-139.5 -3q-47 -1 -86 -2q-19 0 -36 1q-51 1 -53 3 l-25 74q-2 -4 -6 -10.5t-24.5 -22t-46 -26.5t-73.5 -21.5t-108 -10.5q-78 0 -155.5 28t-152.5 86.5t-122 169.5t-47 261zM420 512q0 -98 37 -152.5t98 -54.5q66 0 104.5 54.5t38.5 150.5q0 94 -37.5 159.5t-97.5 65.5q-143 0 -143 -223z" />
<glyph unicode="e" horiz-adv-x="1062" d="M35 547q0 262 149.5 392t374.5 130q168 0 306.5 -109.5t144.5 -189.5l-56 -209l-395 -217q31 -37 363 -37q-2 -59 -13.5 -142t-21.5 -136l-10 -52q-60 -4 -116 -4q-307 0 -499 133q-227 158 -227 441zM401 584l250 153q-6 18 -32.5 36t-55.5 18q-100 0 -146 -69 q-28 -41 -28 -83q0 -27 12 -55z" />
<glyph unicode="f" horiz-adv-x="919" d="M43 995q2 2 43 3t81 1t40 2v55q0 22 6 80t17.5 100t36 98.5t59 91t90 60t125.5 25.5q100 0 203.5 -32.5t156.5 -65.5l55 -35l-168 -270q-80 47 -157 47q-29 0 -43.5 -39t-14.5 -76v-39l244 -14q12 -43 16 -119q1 -32 1 -60q0 -38 -3 -69l-2 -53l-251 4l6 -354l178 -12 l10 -324q-330 -4 -498.5 -4t-175.5 4q-14 8 -30 154q-10 89 -10 125q0 22 3 24q4 2 47 9l80 15q39 7 39 9l-24 360l-156 -2z" />
<glyph unicode="g" horiz-adv-x="1320" d="M43 545q0 139 42 241.5t111.5 156.5t146.5 80t161 26q78 0 153.5 -26t112.5 -52l37 -25v103q109 4 217 6q36 1 72 0l145 -2q0 -4 3 -83t5 -155l4 -76q-4 0 -66.5 -16t-64.5 -18q31 -430 31 -691q0 -57 -13.5 -119.5t-49 -134t-91 -127t-147.5 -92.5t-209 -37 q-125 0 -218 31t-126 62l-31 30l117 295q82 -72 231 -72q109 0 151 95q25 56 25 101q0 31 -12 56q-8 -12 -26.5 -29.5t-91 -46t-164.5 -28.5q-59 0 -120 15.5t-122 55.5t-107.5 100t-76 157.5t-29.5 218.5zM414 537q0 -86 49 -140.5t112 -54.5q70 0 115 52t45 138 q0 82 -44 140.5t-107 58.5q-78 0 -124 -51t-46 -143z" />
<glyph unicode="h" horiz-adv-x="1320" d="M43 1176l2 65q4 68 7 138.5t3 74.5t124 9t247 7l125 5v-476q8 8 24.5 20.5t79 34t140.5 21.5q420 0 419 -524l-2 -268l86 -19q7 -100 7.5 -166.5t-7.5 -99.5l-530 6l-10 260l100 19l-2 219q0 207 -156 207q-61 0 -107 -58.5t-46 -148.5l2 -226l123 -26l4 -246 q-2 -2 -35 -3t-83 -2t-109 -1h-121q-61 0 -109.5 1t-80.5 1t-29 0q-2 14 -4.5 40t-6.5 95.5t-4 126.5l115 8l2 883q-2 2 -82 12.5t-86 10.5z" />
<glyph unicode="i" horiz-adv-x="872" d="M61 958q0 6 113 12q80 4 176 3h78q141 -2 205 -17v-680l168 -26l4 -246q-2 -2 -42 -3t-103.5 -2t-138.5 -1h-151q-77 0 -137.5 1t-100.5 1t-38 0q-2 14 -4 40t-6 95.5t-4 126.5l176 8l2 416q0 2 -27 1l-55 -2q-29 -1 -55 -3l-27 -2q-2 0 -17.5 135t-15.5 143zM211 1366 q0 92 57 148q59 58 143.5 58.5t149 -61t64.5 -141.5q0 -92 -47.5 -155.5t-143.5 -63.5q-104 0 -162 55q-61 59 -61 160z" />
<glyph unicode="j" horiz-adv-x="677" d="M-117 -379l168 277q43 -41 121 -41q86 0 86 129q0 133 -20.5 329.5t-38.5 280.5l-138 18l-10 342q109 1 195 1q299 0 305 -11q27 -51 51.5 -374.5t24.5 -573.5q0 -63 -6.5 -121.5t-30 -132.5t-63.5 -127t-112.5 -91t-168.5 -38q-100 0 -190.5 33t-131.5 65zM143 1366 q0 92 58 148q59 58 143 58.5t148.5 -61t64.5 -141.5q0 -92 -47 -155.5t-143 -63.5q-104 0 -162 55q-62 59 -62 160z" />
<glyph unicode="k" horiz-adv-x="1435" d="M33 1143q-1 1 -1 15q0 30 3 118q4 131 6 135t231 36q192 27 229 27q7 0 9 -1q16 -12 24.5 -73t10.5 -162t2 -192.5t-2 -218.5t-2 -186q213 115 213 127q0 6 -45 17.5t-47 15.5q-2 6 -10.5 111.5t-8.5 117.5q16 3 85 3q34 0 82 -1q142 -2 309 -9t167 -13v-273 q-1 -3 -18.5 -3t-50.5 3q-51 5 -65 5q-5 0 -5 -1q-10 -6 -109 -88q-105 -87 -104 -91q0 -15 141 -150q147 -141 160 -146q4 -2 38 -5t64 -7l33 -4q2 -2 9 -124q5 -78 5 -107q0 -17 -2 -17q-8 -6 -324 -14q-105 -3 -177 -3q-143 0 -152 11q-4 12 -11 76.5t-11 122t-2 57.5 q8 0 42.5 7t34.5 11q-25 29 -119 107q-79 64 -103 64q-5 0 -7 -3q-6 -8 -6 -153q0 -6 43 -15.5t43 -11.5t-4 -124t-4 -128q0 -4 -141.5 -7t-280.5 -3h-142q-2 6 -10 142q-5 78 -4 111q0 25 2 25l148 11l-4 852q-160 2 -162 6z" />
<glyph unicode="l" horiz-adv-x="872" d="M82 283l176 28l-6 858q-2 2 -65.5 12.5t-69.5 10.5q-2 0 -17.5 135t-15.5 143q0 6 111.5 16.5t234.5 13.5q22 1 42 1q95 0 163 -12v-1192l168 -14l4 -279q-2 -2 -41 -3t-100.5 -2t-134.5 -1h-147q-75 0 -133 1t-97 1t-37 0q-4 16 -10.5 45t-15.5 105t-9 133z" />
<glyph unicode="m" horiz-adv-x="2009" d="M35 1020q0 4 101.5 26.5l203.5 43.5l100 18l54 -135q10 12 28.5 30.5t84 50t136.5 31.5q256 0 342 -143q90 133 345 133q80 0 149.5 -23.5t136 -77.5t104.5 -161.5t38 -259.5l-15 -266l109 -19q7 -99 7 -165t-7 -99l-570 -2l-8 258l84 27l-2 235q0 102 -28.5 145.5 t-98.5 43.5q-49 0 -88 -41t-41 -113l-2 -270l88 -13q6 -106 6 -175.5t-6 -102.5l-528 14l-8 258l96 19l-2 235q0 205 -131 205q-55 0 -91 -57.5t-36 -147.5l2 -241l86 -27l4 -244q-6 -8 -572 -8q-2 14 -4 41t-6 96.5t-4 126.5l125 21l2 418q-10 10 -143 10q-2 0 -21.5 148.5 t-19.5 156.5z" />
<glyph unicode="n" horiz-adv-x="1320" d="M55 1040q0 4 101.5 17.5t203.5 23.5l101 13l65 -148q10 14 31 36t90.5 57.5t147.5 35.5q420 0 419 -524l-2 -268l86 -19q7 -100 7.5 -166.5t-7.5 -99.5l-530 6l-10 260l100 19l-2 219q0 207 -156 207q-61 0 -107 -58.5t-46 -148.5l2 -226l123 -26l4 -246q-2 -2 -36 -3 t-86 -2t-114 -1h-125q-63 0 -113 1t-83 1t-31 0q-2 14 -4 40t-6 95.5t-4 126.5l135 8l2 490q-8 2 -32.5 0t-57.5 -4l-33 -2q-2 0 -17.5 139t-15.5 147z" />
<glyph unicode="o" horiz-adv-x="1124" d="M41 516q0 279 146.5 407t383.5 128q223 0 362.5 -143.5t139.5 -395.5q0 -231 -127 -392t-372.5 -161t-389 136t-143.5 421zM414 502q0 -86 52 -139.5t114 -53.5q63 0 102 49.5t39 143.5q0 88 -36 149.5t-105 61.5q-86 0 -126 -59.5t-40 -151.5z" />
<glyph unicode="p" horiz-adv-x="1320" d="M37 979q-2 0 112.5 18.5t230.5 33.5q91 12 113 12q6 0 7 -1l43 -90q6 10 22.5 25.5t85 40t160.5 24.5q61 0 121.5 -15t124 -55t113 -99.5t80 -157t30.5 -217.5q0 -152 -41 -260.5t-110.5 -163t-144.5 -78t-161 -23.5q-78 0 -137 16.5t-80 33.5l-20 16v-203 q199 -23 207 -29q6 -4 7 -75q1 -36 0.5 -69t-0.5 -62q0 -20 -1 -34q0 -29 2 -36h-740l-12 279l156 12l-2 854h-152zM633 508q0 -92 38 -154.5t97 -62.5q143 0 143 215q0 98 -36.5 152.5t-98.5 54.5q-66 0 -104.5 -54.5t-38.5 -150.5z" />
<glyph unicode="q" horiz-adv-x="1216" d="M37 502q0 150 43 262.5t112.5 172.5t144.5 88t150 28q92 0 164 -21.5t97 -44.5l24 -20q39 84 43 96q1 1 8 1q18 0 76 -8q80 -11 158 -24.5t76 -13.5l-17 -1192q2 -2 75 -9t81 -7l-2 -68q0 -68 -1 -139.5t-1 -73.5q0 -4 -180.5 -6t-360.5 -2h-180v280l184 33v209 q-8 -8 -23.5 -18.5t-77 -29t-138.5 -18.5q-86 0 -161 24t-144.5 78t-109.5 162.5t-40 260.5zM420 510q0 -102 34.5 -149.5t108.5 -47.5q61 0 98 53.5t37 145.5q0 94 -40 145.5t-107 51.5q-131 0 -131 -199z" />
<glyph unicode="r" horiz-adv-x="1171" d="M55 1032q0 4 103.5 22.5l206.5 35.5l104 14l66 -139q8 10 24 26.5t78.5 44t140.5 27.5q82 0 163 -38t121 -75q38 -35 38 -46q0 -15 -56 -90q-53 -73 -105 -136q-49 -60 -56 -60q-28 0 -80 41t-76 41q-80 0 -129 -57t-49 -149q0 -59 4 -108.5t8 -70.5l4 -18l209 -27 l4 -266q-2 -2 -41 -3t-100.5 -2t-133.5 -1h-148q-75 0 -133 1t-97 1t-37 0q-2 16 -4 45t-6 104.5t-4 133.5l135 8l2 481q-8 2 -32.5 0t-57.5 -4l-33 -2q-2 0 -17.5 129t-15.5 137z" />
<glyph unicode="s" d="M59 373q61 10 152 12q30 1 51 1q43 0 51 -3q18 -55 54 -87t71 -32q76 0 76 53q0 18 -8 34t-28.5 28t-37 20.5t-48.5 21.5t-48 19q-55 25 -94 48.5t-82 62.5t-65.5 98.5t-22.5 134.5q0 115 101.5 201t271.5 86q131 0 198 -59l13 71q34 1 65 1q154 0 227 -25q2 -1 2 -18 q0 -21 -3 -66q-5 -82 -12 -175t-7 -106q-8 -7 -50 -6h-23q-62 2 -135 7t-73 10q-4 45 -36.5 67.5t-69.5 22.5q-63 0 -64 -52q0 -18 28 -35.5t93.5 -44t93.5 -40.5q106 -49 181 -140.5t75 -216.5q0 -123 -100 -208t-238 -85q-193 0 -266 68q-2 -12 -4 -34.5t-4 -35.5l-2 -14 l-279 23q-4 31 -4 393z" />
<glyph unicode="t" horiz-adv-x="1032" d="M51 713l4 301l148 16q23 238 22 242q25 16 117 31.5t172 21.5l80 6l12 -313l258 4q5 -71 5 -129q0 -108 -17 -172l-270 -14l-2 -168q8 -178 57 -179q29 0 66.5 16.5t62.5 33.5l22 14l148 -295q-8 -6 -21.5 -18.5t-58.5 -42t-91 -53t-112.5 -42t-130.5 -18.5 q-59 0 -107 13.5t-82 46t-57.5 63.5t-39 92t-23.5 101t-11 123t-4 127t-1 141v45q0 2 -36 2t-72 1t-38 3z" />
<glyph unicode="u" horiz-adv-x="1320" d="M39 913q-4 37 -4 62q0 30 6 39l469 33q0 -137 2 -494q0 -207 145 -207q59 0 96.5 57.5t37.5 149.5l-3 145l-135 7l-16 290l508 39v-702q2 -2 64.5 -14.5t66.5 -12.5q2 0 2 -309q0 -4 -96.5 -7t-192.5 -5h-96l-35 90q-12 -10 -35.5 -27.5t-97.5 -45.5t-152 -28 q-86 0 -156.5 23.5t-135 78t-101.5 162t-37 261.5l2 233l-86 8q-4 23 -8 56.5t-12 117.5z" />
<glyph unicode="v" horiz-adv-x="1419" d="M44 938q-4 39 -4 63q0 27 5 35l612 -6l11 -262l-115 -4l156 -348l147 342l-102 6l-4 266q2 2 35.5 3t86 2t113.5 1h125q63 0 113.5 -1t83 -1t30.5 0q2 -14 4 -39.5t6.5 -95.5t4.5 -127l-123 -8q-254 -590 -379 -776q-102 -6 -177 -6q-107 0 -157 12q-291 602 -321 770 l-129 6q-4 23 -8.5 54.5t-13.5 113.5z" />
<glyph unicode="w" horiz-adv-x="1998" d="M38 936q-4 40 -4 64q0 27 5 36l612 -6l11 -268l-109 -4l109 -250l245 434l187 -6l272 -432l98 248l-116 6l2 272q2 2 36.5 3t89 2t117.5 1h128q65 0 117 -1t86 -1t32 0q2 -16 4 -42.5t6 -99.5t4 -130l-123 -8q-203 -580 -327 -766q-68 -6 -123 -6q-78 0 -129 12l-279 446 l-248 -452q-77 -6 -136 -6q-85 0 -136 12q-250 596 -281 764l-129 6q-4 23 -8 55.5t-13 116.5z" />
<glyph unicode="x" horiz-adv-x="1372" d="M53 723v287q0 6 145.5 11t270.5 5t145 -4q0 -2 6 -66l10 -125q4 -44 3 -58q0 -8 -3.5 -9.5t-16.5 -2.5h-6q-24 -1 -45 -1t-21 -6t30 -43l60 -72l28 -33q127 147 127 160q0 6 -23 4l-45 -4q-22 -2 -28 2q-2 4 -2 41t1 79l2 81q1 39 1 41q0 4 141.5 10t263.5 7h32 q92 0 110 -5v-279q-4 -6 -53 -7t-51 -3q-4 -4 -91 -102q-92 -106 -92 -110q0 -15 109 -122q115 -113 127 -116q4 -2 29.5 -5.5t48.5 -7.5l24 -4q2 -2 9 -129q5 -81 5 -111q0 -17 -1 -18q-8 -6 -284 -10q-55 -1 -100 -1q-178 0 -188 13q-4 12 -11 77t-11 123t-2 58 q8 0 42.5 7.5t34.5 11.5l-114 129l-92 -129q0 -4 30.5 -11.5t36.5 -7.5q2 0 5 -59q2 -45 3 -93q0 -16 -1 -32q-1 -66 -5 -78q-10 -14 -206 -14q-37 0 -80 1q-273 3 -281 9q-4 2 -7 132q-2 78 -2 110q0 21 1 22l22 4q25 4 50.5 7.5t29.5 5.5q10 4 107 116q90 106 90 122 q0 4 -89 107q-83 95 -89 99q-1 1 -6 1q-14 0 -64 -5q-34 -3 -51.5 -3t-18.5 3z" />
<glyph unicode="y" horiz-adv-x="1419" d="M44 938q-4 39 -4 63q0 27 5 35l612 2l11 -270l-115 -4l156 -289l147 283l-102 6l-4 266q2 2 64 3q21 0 44 1q47 0 105 -2l171 -4q85 -2 145 -4t58 -2q2 -14 4 -40t6.5 -95.5t4.5 -126.5l-113 -6q-555 -1094 -680 -1280q-12 2 -31.5 7t-73 20.5t-97.5 35t-89 49t-63 62.5 q-6 0 68 119l151 238q76 120 72 120q-287 471 -318 639l-112 6q-4 23 -8.5 54.5t-13.5 113.5z" />
<glyph unicode="z" horiz-adv-x="1173" d="M63 274q0 2 136 129l268 253q133 126 129 126q-2 0 -50 5.5t-93 9.5t-47 2l-23 -131q-289 20 -305 28q-5 12 -5 70v20q1 76 5 164l6 86q940 0 940 -6q0 -2 11 -68l22 -133q9 -55 8 -63q0 -2 -55 -51l-127 -116l-148 -136l-125 -115q-51 -47 -49 -47l33 -2q35 0 73 -1 t71.5 -2t33.5 1t2 33l4 60q2 30 4 30q297 0 310 -19q5 -15 4 -69v-40q-2 -89 -6 -190l-7 -100h-968q-2 0 -28 135t-24 137z" />
<glyph unicode="{" horiz-adv-x="841" d="M38 580q-3 129 3 135q2 2 62.5 4t119 19.5t58.5 58.5q0 27 7 186.5t7 190.5q0 84 41 150.5t99.5 103t131 60t127 31t97.5 7.5q10 -25 13 -87.5t-1 -115.5t-10 -53q-254 -37 -254 -148q0 -70 -3.5 -189.5t-3.5 -135.5q0 -49 -17 -91t-40.5 -66t-48.5 -41t-41 -24l-18 -6 q6 -4 17 -10t40 -26.5t50.5 -43t39.5 -57.5t18 -72q0 -31 -3 -228.5t-3 -254.5q0 -47 62.5 -80t125 -44t64.5 -3l2 -229q-2 -2 -56 -4t-134 9t-159 38.5t-135 93.5t-56 162v534q0 27 -43 46.5t-92.5 29.5t-53.5 12q-10 9 -13 138z" />
<glyph unicode="|" horiz-adv-x="473" d="M160 1509q8 10 53 14.5t86 2.5t41 -4v-2026l-121 -16q-35 -2 -37 6q-6 16 -17 1015.5t-5 1007.5z" />
<glyph unicode="}" horiz-adv-x="841" d="M36 1415.5q1 61.5 11 85.5q47 0 98.5 -5t129 -24.5t135 -52.5t100.5 -97.5t43 -147.5q0 -31 7 -191t7 -186q0 -41 58.5 -57.5t119 -17.5t62.5 -3q6 -10 9 -148.5t-7 -150.5q-4 -4 -56.5 -8t-98.5 -17.5t-46 -40.5v-544q0 -96 -56 -162t-135 -91.5t-159 -35.5t-134 -8 t-56 4l2 229q2 -8 64.5 1t125 41t62.5 79q0 57 -3.5 260t-3.5 233q0 18 4.5 36t11.5 33t17 30.5t20.5 28t22.5 23.5t24 19l21 16l18 12q7 5 13 7l6 4q-6 2 -20.5 8.5t-41 23.5t-49 41t-39 65t-16.5 90v305q0 111 -252 147q-8 2 -14 53.5t-5 113z" />
<glyph unicode="~" horiz-adv-x="1431" d="M70 535q0 6 17 31.5t53 64.5t81 74.5t109.5 61.5t130.5 26q72 0 142.5 -36t119.5 -78t113.5 -78t121.5 -36q41 0 75 13.5t54.5 33t36 45t21.5 44.5l12 39q6 19 6 22q4 10 52.5 -20.5t95.5 -65.5t47 -39t-15.5 -37t-50.5 -83t-80 -97t-114.5 -81t-143.5 -34 q-90 0 -163.5 35t-114.5 77t-96.5 76.5t-112.5 34.5q-49 0 -92 -16t-71 -42t-46 -49.5t-29.5 -44t-13.5 -20.5q-6 -6 -75.5 81.5t-69.5 97.5z" />
<glyph unicode="&#xa2;" horiz-adv-x="1136" d="M53 530q0 242 157 386.5t363 144.5q125 0 242 -45l33 58l24 44l9 17q8 2 40.5 -14.5t61.5 -35.5l29 -16l-70 -119q37 -31 67.5 -67.5t43.5 -57.5l10 -20q-104 -145 -219 -232q-2 2 -13 15l-24 29q-14 17 -31 32l-190 -330q18 -6 39 -6q84 0 168 97q37 -8 103.5 -60.5 t115.5 -99.5l47 -49q-4 -10 -14.5 -24.5t-47 -54.5t-82 -69.5t-123 -54.5t-167.5 -25q-111 0 -226 37l-84 -147l-98 43q-16 10 -16 14q0 6 78 148q-226 151 -226 462zM426 532q0 -102 59 -143l181 330q-20 12 -48 12q-90 0 -141 -58.5t-51 -140.5z" />
<glyph unicode="&#xa3;" horiz-adv-x="1196" d="M106.5 709.5q6.5 76.5 12.5 81.5q47 0 108 -3q-39 238 -39 285q0 190 136.5 287.5t339.5 97.5q88 0 167.5 -20.5t130 -50t88 -63.5t54 -58.5t16.5 -34.5q0 -29 -87 -138.5t-148 -144.5q-4 10 -14.5 26.5t-50.5 44.5t-91 28q-41 0 -66.5 -30t-25.5 -85t20 -148 q221 -4 222 -6q0 -6 -7.5 -69.5t-9.5 -67.5q-2 -2 -180 -6q23 -182 -53 -256q0 -6 95 -7t203.5 -2t133.5 -8q14 -49 19 -138t3 -154.5t-6 -69.5q-8 -6 -470 1t-478 3q-6 0 -7 22.5t1 59.5l4 72q2 35 5 68.5t3 39.5q150 39 115 361q-139 0 -141 2q-9 4 -2.5 80.5z" />
<glyph unicode="&#xa5;" horiz-adv-x="1437" d="M74 1116v35q2 33 2 79t1 93t1 80t-2 33l602 -11l22 -280q-2 -4 -98 -4l35 -39l72 -82l34 -41q8 10 23.5 27.5t45.5 54.5l49 62q19 26 17.5 28t-81.5 2q-6 2 -4 142.5t4 142.5t276.5 -3t284.5 -9.5t19 -139.5t5 -139q-6 -6 -125 -6q-8 0 -284 -371l145 -4q0 -6 -7 -69.5 t-9 -67.5q-2 -2 -191 -6q0 -8 1 -37t1 -41q188 0 217 -6q4 -2 5.5 -67.5t-0.5 -70.5q-4 -4 -220 -12q0 -35 1.5 -61.5t1.5 -38.5v-15q0 -8 28.5 -10t60 -2t35.5 -4q6 -8 7 -254q0 -6 -317.5 -13t-321.5 -5t-6.5 131t-0.5 131q2 0 37 4t69 9t34 7v107q-199 -6 -205 -4 q-8 2 -12 80.5t2 80.5q92 2 215 7v79q-270 -4 -278.5 0.5t-2.5 81t12 80.5q119 -2 228 -2q-41 55 -108 134l-113 132q-47 53 -49.5 51.5t-41.5 3.5l-77 10q-39 5 -39 7z" />
<glyph unicode="&#xa9;" horiz-adv-x="1572" d="M41 688q0 383 217 576.5t565 193.5q311 0 510 -193.5t199 -533.5q0 -150 -43 -281t-128 -237.5t-226.5 -168.5t-323.5 -62q-342 0 -556 193.5t-214 512.5zM195 688q0 -266 180 -418.5t438 -152.5q236 0 389.5 145.5t153.5 425.5q0 121 -31 229.5t-92.5 198.5 t-165.5 143.5t-242 53.5q-168 0 -293.5 -51.5t-197.5 -140.5t-105.5 -197.5t-33.5 -235.5zM410 711q0 199 102 295t246 96q41 0 75.5 -16.5t49.5 -32.5l14 -17l14 86l35 -2q35 -2 83 -10t71 -23q4 -14 2 -76.5t-4 -133.5l-4 -72l-203 -31q-2 12 -8 29.5t-37 47.5t-74 30 t-72.5 -44t-29.5 -126q0 -80 40 -121t89 -41q18 0 37.5 5t36 14.5t27.5 17.5l21.5 16t12.5 10q25 -12 65.5 -48l69.5 -64l31 -31q-2 -6 -9.5 -18.5t-32 -41t-55 -51t-86 -41t-118.5 -18.5q-156 0 -272.5 109.5t-116.5 302.5z" />
<glyph unicode="&#xad;" horiz-adv-x="868" d="M90 641q10 6 342 37t334 20q4 -12 -6 -160.5t-15 -148.5q-2 0 -308 -21.5t-314 -21.5q-10 0 -24.5 145.5t-8.5 149.5z" />
<glyph unicode="&#xae;" horiz-adv-x="1060" d="M41 1122q0 236 142.5 366t359.5 130q213 0 345 -127t132 -352q0 -205 -121 -347.5t-354 -142.5q-227 0 -365.5 124t-138.5 349zM184 1114q0 -156 107.5 -248t259.5 -92q141 0 229 86t88 254q0 154 -78.5 262.5t-238.5 108.5q-193 0 -280 -103.5t-87 -267.5zM331 1016 q1 10 3 10q41 0 41 6v213q-41 0 -41 2q-2 4 -1 57.5t3 57.5h41q29 0 77 -1t62 -1q190 0 191 -115q0 -39 -15.5 -70.5t-32.5 -44.5l-16 -12l51 -96q39 2 39 0v-14q2 -16 2 -33v-33v-16q-2 -4 -95 -3t-95 5t-1 46t3 46q12 4 20 4q0 4 -14 35t-16 31l-27 -3l-27 -2v-61l29 -2 v-94l-172 2l-2 8q-2 10 -3 24.5t-3 29t-1 24.5zM483 1180h21q23 2 44 11t21 32q0 16 -20.5 21t-40.5 3l-23 -2v-11q0 -7 -1 -21.5t-1 -24.5v-8z" />
<glyph unicode="&#xb4;" horiz-adv-x="925" d="M102 1415l570 230q23 8 24 8q8 -2 41 -76t60.5 -146.5t23.5 -74.5q-586 -195 -598 -189q-14 8 -45 69.5t-53 119.5z" />
<glyph unicode="&#x2000;" horiz-adv-x="868" />
<glyph unicode="&#x2001;" horiz-adv-x="1738" />
<glyph unicode="&#x2002;" horiz-adv-x="868" />
<glyph unicode="&#x2003;" horiz-adv-x="1738" />
<glyph unicode="&#x2004;" horiz-adv-x="579" />
<glyph unicode="&#x2005;" horiz-adv-x="434" />
<glyph unicode="&#x2006;" horiz-adv-x="288" />
<glyph unicode="&#x2007;" horiz-adv-x="288" />
<glyph unicode="&#x2008;" horiz-adv-x="217" />
<glyph unicode="&#x2009;" horiz-adv-x="346" />
<glyph unicode="&#x200a;" horiz-adv-x="96" />
<glyph unicode="&#x2010;" horiz-adv-x="868" d="M90 641q10 6 342 37t334 20q4 -12 -6 -160.5t-15 -148.5q-2 0 -308 -21.5t-314 -21.5q-10 0 -24.5 145.5t-8.5 149.5z" />
<glyph unicode="&#x2011;" horiz-adv-x="868" d="M90 641q10 6 342 37t334 20q4 -12 -6 -160.5t-15 -148.5q-2 0 -308 -21.5t-314 -21.5q-10 0 -24.5 145.5t-8.5 149.5z" />
<glyph unicode="&#x2012;" horiz-adv-x="868" d="M90 641q10 6 342 37t334 20q4 -12 -6 -160.5t-15 -148.5q-2 0 -308 -21.5t-314 -21.5q-10 0 -24.5 145.5t-8.5 149.5z" />
<glyph unicode="&#x2013;" horiz-adv-x="1130" d="M102 532.5q2 145.5 9 149.5q10 4 444 15.5t436 0.5q4 -12 -2 -150t-10 -138q-2 0 -431 -11.5t-437 -11.5q-11 0 -9 145.5z" />
<glyph unicode="&#x2014;" horiz-adv-x="1593" d="M102 543q2 135 9 139q10 4 679.5 15.5t671.5 0.5q4 -12 -2 -140t-10 -128q-2 0 -666.5 -11t-672.5 -11q-11 0 -9 135z" />
<glyph unicode="&#x2018;" horiz-adv-x="663" d="M123 1090q-94 555 297 624q8 -16 21.5 -57t21.5 -72l10 -33q-125 -10 -172 -108q-35 -74 6 -119q20 -23 53 -22q104 0 148.5 -51.5t48.5 -151.5q2 -94 -59.5 -151.5t-151.5 -57.5q-84 0 -146.5 58.5t-76.5 140.5z" />
<glyph unicode="&#x2019;" horiz-adv-x="624" d="M102 1513q-2 96 57.5 154.5t143.5 58.5q80 0 140.5 -60t72.5 -142q90 -561 -283 -633q-8 18 -21 59t-22 74l-8 33q121 10 164 108q33 76 -6 119q-18 20 -49 21q-100 0 -142.5 52t-46.5 156z" />
<glyph unicode="&#x201c;" horiz-adv-x="1206" d="M164 1090q-94 555 297 624q8 -16 21.5 -57t21.5 -72l10 -33q-125 -10 -172 -108q-35 -74 6 -119q20 -23 53 -22q104 0 148.5 -51.5t48.5 -151.5q2 -94 -59.5 -151.5t-151.5 -57.5q-84 0 -146.5 58.5t-76.5 140.5zM700 1106q-90 561 283 633q8 -18 21.5 -59.5t21.5 -73.5 l8 -33q-121 -10 -164 -109q-33 -76 7 -118q18 -20 49 -21q100 0 142 -52t46 -157q2 -96 -57.5 -154.5t-143.5 -58.5q-80 0 -140.5 60.5t-72.5 142.5z" />
<glyph unicode="&#x201d;" horiz-adv-x="1206" d="M102 1513q-2 96 57.5 154.5t143.5 58.5q80 0 140.5 -60t72.5 -142q90 -561 -283 -633q-8 18 -21 59t-22 74l-8 33q121 10 164 108q33 76 -6 119q-18 20 -49 21q-100 0 -142.5 52t-46.5 156zM618 1530q-2 94 59.5 151.5t151.5 57.5q84 0 146.5 -58.5t77.5 -140.5 q94 -555 -297 -625q-8 16 -21.5 57.5t-21.5 71.5l-11 33q125 10 172 109q35 74 -6 119q-20 23 -53 22q-104 0 -148.5 51.5t-48.5 151.5z" />
<glyph unicode="&#x2022;" horiz-adv-x="651" d="M61 770q0 137 79 201.5t206 64.5q119 0 193.5 -71.5t74.5 -196.5q0 -117 -67.5 -198t-200.5 -81q-285 0 -285 281z" />
<glyph unicode="&#x2026;" horiz-adv-x="1951" d="M117 193q-2 96 57 154.5t143 58.5t148.5 -61.5t64.5 -141.5q0 -92 -47 -155.5t-143 -63.5q-104 0 -161.5 55.5t-61.5 153.5zM778 193q-2 96 57.5 154.5t143.5 58.5t148.5 -61.5t64.5 -141.5q0 -92 -47 -155.5t-144 -63.5q-104 0 -161.5 55.5t-61.5 153.5zM1419 193 q-2 96 57.5 154.5t143.5 58.5t148.5 -61.5t64.5 -141.5q0 -92 -47 -155.5t-144 -63.5q-104 0 -161.5 55.5t-61.5 153.5z" />
<glyph unicode="&#x202f;" horiz-adv-x="346" />
<glyph unicode="&#x205f;" horiz-adv-x="434" />
<glyph unicode="&#x20ac;" horiz-adv-x="1409" d="M35 897q55 0 131 2q39 287 206 424t382 137q70 0 129 -21.5t82.5 -39t29.5 -27.5q12 80 23 117q238 -23 307 -59q4 -27 1 -143t-7 -247l-4 -133l-279 -22q-2 8 -8 23.5t-28.5 53t-49 67.5t-73 53.5t-97.5 23.5q-160 0 -207 -205q295 4 299.5 0t7.5 -59.5t-3 -67.5 q-4 -8 -320 -24v-7q0 -49 6 -86q55 0 130 2.5t93 2.5h37l-10 -150q-78 -10 -180 -20q86 -113 192 -113q59 0 119 31.5t88.5 59.5t44.5 50q47 -31 114 -90l112 -102l43 -45l-17 -34q-10 -22 -54 -75t-97.5 -93t-148.5 -74t-204 -34q-199 0 -374 124t-250 349 q-109 -10 -109 -8l-8 209h76q-4 53 -4 88q-59 -4 -103 -4q-6 0 -16 82t-2 84z" />
<glyph unicode="&#x2122;" horiz-adv-x="1429" d="M43 1240q0 60 2 122.5t6 69.5q6 6 286.5 16t283.5 6q0 -2 2 -135t2 -137q-2 -2 -69 -2t-71 4l-10 71q-43 -2 -47 -2q-2 -4 -1 -29.5t4 -68.5t5 -83t4 -68l2 -31h23q23 0 42 1t25 -1q2 -4 4.5 -83t0.5 -87q0 -4 -96.5 -5t-191.5 -1t-95 2v43q0 37 2 80v43l24 2 q27 2 51.5 6t24.5 8l-6 272l-49 -2q-4 -70 -4 -73h-38q-30 0 -71 2h-41q-4 0 -4 60zM675 891q-1 80 5 84q2 2 15 2h27q13 0 13 2q0 266 -4 278q0 2 -10 3h-23q-12 0 -16 2q-4 4 -6 88t2 88q2 4 108.5 4t112.5 -2l94 -133q96 127 103 131q2 2 60 3t116.5 0t58.5 -3v-82 q2 -80 2 -84q0 -10 -57 -10q0 -281 4 -287q2 -4 16.5 -4t28.5 -1t14 -3l9 -174h-78q-76 0 -152 2t-76 6q0 166 2 166q57 0 58 2l2 198q-2 -2 -18 -23l-29 -42l-17 -21q-80 -4 -82 0q-2 2 -28 41l-31 45l2 -45v-94l2 -49q0 -4 31 -8l29 -2l6 -170q-268 0 -289 4q-4 8 -5 88z " />
<glyph unicode="&#xe000;" horiz-adv-x="1025" d="M0 1025h1025v-1025h-1025v1025z" />
<glyph unicode="&#xfb01;" horiz-adv-x="1574" d="M43 995q2 2 43 3t81 1t40 2q0 100 21.5 186.5t68.5 162t135 118.5t211 43q115 0 227.5 -18t167.5 -39l56 -18q-29 -207 -101 -308q-158 53 -286 54q-63 0 -97.5 -45t-36.5 -90v-46q27 4 173.5 1t349 -17t266.5 -29v-639l168 -26l4 -287q-2 -2 -39 -3t-95.5 -2t-125.5 -1 h-137q-70 0 -125.5 1t-92 1t-34.5 0q-2 18 -4 51t-6.5 114t-4.5 138l136 8l2 375q-23 2 -31 1t-123 -1t-276 4l6 -354l157 -12l11 -324q-639 -8 -653.5 0t-31 153.5t-6.5 149.5q4 2 47 9l80 15q39 7 39 9l-24 360l-156 -2z" />
<glyph unicode="&#xfb02;" horiz-adv-x="1671" d="M43 995q2 2 43 3t81 1t40 2q0 111 25.5 197t86 160t175 113.5t278.5 39.5q168 0 334 -23.5t246 -45.5l82 -25v-1120l168 -14l4 -279q-2 -2 -41 -3t-100.5 -2t-134.5 -1h-147q-75 0 -133.5 1t-97.5 1t-37 0q-4 16 -10 45t-15 104.5t-9 133.5l176 28l-6 791q-90 53 -267 53 q-61 0 -105 -15.5t-63.5 -39t-30 -46t-12.5 -38.5v-15l244 -14q12 -43 15.5 -118.5t-1.5 -129.5l-2 -53l-251 4l6 -354l178 -12l10 -324q-659 -8 -673.5 0t-31 153.5t-6.5 149.5q4 2 47 9l80 15q39 7 39 9l-24 360l-156 -2z" />
<glyph unicode="&#xfb03;" horiz-adv-x="2394" d="M43 995q2 2 43 3t81 1t40 2q0 39 2 67t10 98.5t31.5 121.5t61.5 106.5t105.5 86t155.5 30.5q86 0 166 -20.5t117 -40.5l39 -20l-127 -293q-59 18 -111 18q-41 0 -61.5 -39t-22.5 -78v-39q209 4 426 2q0 100 21.5 186.5t69 162t135.5 118.5t211 43q115 0 227.5 -18 t167.5 -39l55 -18q-29 -207 -100 -308q-158 53 -287 54q-63 0 -97 -45t-34 -90l-2 -46q29 4 176.5 1t350 -16t261.5 -30v-639l168 -26l5 -287q-2 -2 -39 -3t-95.5 -2t-126.5 -1h-137q-70 0 -125 1t-92 1t-35 0q-2 18 -4 51t-6 114t-4 138l135 8l2 375q-20 2 -79.5 1t-172 -1 t-178.5 4l10 -354l154 -17q10 -219 -8 -311l-584 -10q-29 0 -31 2q-14 8 -25.5 153.5t-0.5 149.5q4 2 39 9l66 15q32 7 32 9l-23 360l-421 -4l6 -356l166 -12l10 -324q-647 -8 -661.5 0t-31 153.5t-6.5 149.5q4 2 47 9l80 15q39 7 39 9l-24 360l-156 -2z" />
<glyph unicode="&#xfb04;" horiz-adv-x="2471" d="M43 995q2 2 43 3t81 1t40 2q0 39 2 67t10 98.5t31.5 121.5t61.5 106.5t105.5 86t155.5 30.5q86 0 166 -20.5t117 -40.5l39 -20l-127 -293q-59 18 -111 18q-41 0 -61.5 -39t-22.5 -78v-39q213 4 435 2q0 111 25.5 197t86 160t175 113.5t278.5 39.5q168 0 334 -23.5 t247 -45.5l80 -25v-1120l168 -14l4 -279q-2 -2 -42 -3t-102 -2t-136 -1h-149q-75 0 -134 1t-99 1t-38 0q-2 18 -3 45t-3 107.5t2 130.5l156 28l-7 791q-90 53 -266 53q-61 0 -105 -15.5t-63.5 -39t-30 -46t-10.5 -38.5l-2 -15l244 -14q12 -43 15 -118.5t1 -129.5l-4 -53 l-252 4l6 -354l179 -12q6 -219 -13 -312l-608 -14q-29 0 -31 2q-14 8 -25.5 153.5t-0.5 149.5q4 2 39 9l66 15q32 7 32 9l-23 360l-421 -4l6 -356l166 -12l10 -324q-647 -8 -661.5 0t-31 153.5t-6.5 149.5q4 2 47 9l80 15q39 7 39 9l-24 360l-156 -2z" />
</font>
</defs>
</svg>
